<svg id="Layer_1" data-name="Layer 1" xmlns="http://www.w3.org/2000/svg" viewBox="0 0 360.56 359.96"><defs><style>.cls-1,.cls-6{fill:#fff;}.cls-1,.cls-2,.cls-6{stroke:#22272b;stroke-miterlimit:10;stroke-width:2.76px;}.cls-1{stroke-linecap:round;}.cls-2{fill:none;}.cls-3{fill:#22272b;}.cls-4{fill:#b5b7ba;}.cls-5{fill:#21262a;}.cls-7{fill:#21272b;}</style></defs><title>guarantee</title><path id="Fill-3" class="cls-1" d="M179.9,1.4c98.8,0,179,79.9,179,178.6,0,98.5-80.2,178.6-179,178.6S1.1,278.5,1.1,180C1.1,81.3,81.1,1.4,179.9,1.4" transform="translate(0.28 -0.02)"/><path id="Fill-3-2" data-name="Fill-3" class="cls-2" d="M179.9,11.8c93,0,168.5,75.3,168.5,168.2S272.9,348.2,179.9,348.2,11.4,272.9,11.4,180,86.9,11.8,179.9,11.8" transform="translate(0.28 -0.02)"/><path class="cls-3" d="M347.4,192.1a148.67,148.67,0,0,0,1.1-18.9C348.5,84.2,273,12,180,12S11.6,84.2,11.6,173.2a169.69,169.69,0,0,0,1.1,18.9H347.4Z" transform="translate(0.28 -0.02)"/><path class="cls-4" d="M49.1,163.2a1.62,1.62,0,0,0-1.5.6,10.55,10.55,0,0,0-1.4,2.2c-.6,1.1-1,1.9-1.4,2.6-1.4,2.2-3,3.2-5.1,3a5.19,5.19,0,0,1-2.5-1.1,5.59,5.59,0,0,1-1.5-2.6,10.54,10.54,0,0,1-.3-3.6,10.42,10.42,0,0,1,1.1-3.4,5.19,5.19,0,0,1,2.2-2.2,6.21,6.21,0,0,1,3-.6l-.4,4.3a1.93,1.93,0,0,0-1.8.6,3,3,0,0,0-.8,1.8,2.85,2.85,0,0,0,.3,1.9,2,2,0,0,0,1.2.8,1.75,1.75,0,0,0,1.4-.6,6.85,6.85,0,0,0,1.4-2.5,14.81,14.81,0,0,1,1.7-2.9c1.4-1.8,2.9-2.6,5-2.3a3.76,3.76,0,0,1,3.4,2.2,7.12,7.12,0,0,1,.8,5,9.9,9.9,0,0,1-1.2,3.9,6.67,6.67,0,0,1-2.5,2.5,5.13,5.13,0,0,1-3.2.6l.4-4.3a2.55,2.55,0,0,0,2.2-.6c.6-.4.8-1.2,1-2.3a2.78,2.78,0,0,0-.3-1.8A1.37,1.37,0,0,0,49.1,163.2Z" transform="translate(0.28 -0.02)"/><path class="cls-4" d="M54.6,143.6l-1.5,5.8,3,1.9-1.2,4.4-15.7-11,1.1-4,19-1.8-1.2,4.6Zm-4.5,3.8,1-3.7-6.5.3Z" transform="translate(0.28 -0.02)"/><path class="cls-4" d="M52.6,117.5l-2.1,5,13.4,5.8-1.7,4-13.4-5.8-2.1,4.8-3-1.4,5.9-13.8Z" transform="translate(0.28 -0.02)"/><path class="cls-4" d="M70.8,114.9l-2.2,3.7-15.6-9,2.2-3.7Z" transform="translate(0.28 -0.02)"/><path class="cls-4" d="M75.6,99.3a1.57,1.57,0,0,0-1.7-.3,7.27,7.27,0,0,0-2.3,1.2,18.26,18.26,0,0,1-2.5,1.5c-2.3,1.2-4.3,1.2-5.9,0a4.47,4.47,0,0,1-1.7-5.2,8.69,8.69,0,0,1,1.7-3.3,7.85,7.85,0,0,1,2.6-2.3,4.62,4.62,0,0,1,3-.7,5,5,0,0,1,2.9,1.1l-2.6,3.4a2,2,0,0,0-1.8-.4,2.7,2.7,0,0,0-1.5,1.1,3.39,3.39,0,0,0-.7,1.8,1.91,1.91,0,0,0,.7,1.4,1.37,1.37,0,0,0,1.4.1,9.5,9.5,0,0,0,2.5-1.4,19.31,19.31,0,0,1,2.9-1.7,5.6,5.6,0,0,1,5.5.4A4.65,4.65,0,0,1,80,99.6a8.18,8.18,0,0,1-1.8,4.7,11.38,11.38,0,0,1-3,2.8,4.55,4.55,0,0,1-3.3.8,4.82,4.82,0,0,1-3-1.1l2.6-3.4a2.88,2.88,0,0,0,2.2.7,3,3,0,0,0,1.9-1.5,3.1,3.1,0,0,0,.7-1.7A2,2,0,0,0,75.6,99.3Z" transform="translate(0.28 -0.02)"/><path class="cls-4" d="M88.4,81.8l-5,5,5.1,5-3,3L72.7,82l8.4-8.6,2.3,2.3L78,81.2l2.9,2.9,5-5Z" transform="translate(0.28 -0.02)"/><path class="cls-4" d="M101.8,75.5l-4.7,3.6,1.2,3.3-3.6,2.9L88.8,67.1,92,64.6l16.3,10.1-3.7,2.9Zm-5.9.5,3-2.3L93.5,70Z" transform="translate(0.28 -0.02)"/><path class="cls-4" d="M121.6,60.1a5.82,5.82,0,0,1,.7,3.4,5.76,5.76,0,0,1-1.2,3.2,8.92,8.92,0,0,1-2.9,2.5,7,7,0,0,1-5.9.7,9.72,9.72,0,0,1-5-4.7l-.4-.8a11.52,11.52,0,0,1-1.5-4.4,6.73,6.73,0,0,1,.8-4,8.06,8.06,0,0,1,2.9-2.9,7.82,7.82,0,0,1,5.4-1.1,7.15,7.15,0,0,1,4.3,3l-3.7,2.1a3.34,3.34,0,0,0-1.9-1.7,3.66,3.66,0,0,0-2.5.6,2.62,2.62,0,0,0-1.5,2.2,8.27,8.27,0,0,0,1.2,3.7L111,63c1,1.7,1.8,2.8,2.6,3.2a2.59,2.59,0,0,0,2.8-.1,4.78,4.78,0,0,0,1.7-1.8,2.49,2.49,0,0,0-.4-2.3Z" transform="translate(0.28 -0.02)"/><path class="cls-4" d="M136.9,44.9l-5.1,1.9,5.1,13.7-4,1.5-5.1-13.7-5,1.9L121.6,47l14.1-5.2Z" transform="translate(0.28 -0.02)"/><path class="cls-4" d="M151.4,56.2l-4.1,1.1L143,39.8l4.1-1.1Z" transform="translate(0.28 -0.02)"/><path class="cls-4" d="M171.4,44.5a10.25,10.25,0,0,1-.4,4.7,7.62,7.62,0,0,1-2.3,3.4,7.17,7.17,0,0,1-4,1.5,7.9,7.9,0,0,1-4.1-.6,8.77,8.77,0,0,1-3.2-2.6,8.55,8.55,0,0,1-1.5-4.4l-.1-1a9.06,9.06,0,0,1,.4-4.7,7.62,7.62,0,0,1,2.3-3.4,7.79,7.79,0,0,1,4-1.5,7.9,7.9,0,0,1,4.1.6,8.44,8.44,0,0,1,3.2,2.8,9.24,9.24,0,0,1,1.5,4.4Zm-4.4-.3a8.4,8.4,0,0,0-1.4-3.9,3.25,3.25,0,0,0-2.8-1.1c-2.2.3-3,2.1-2.9,5.2l.1,1.4a8.4,8.4,0,0,0,1.4,3.9,3.25,3.25,0,0,0,2.8,1.1,2.61,2.61,0,0,0,2.3-1.7,8.36,8.36,0,0,0,.4-4.1v-.8Z" transform="translate(0.28 -0.02)"/><path class="cls-4" d="M192.8,53.5l-4.3-.1-5.9-11.5-.4,11.2-4.3-.1.7-17.9,4.3.1,5.9,11.5.4-11.2,4.3.1Z" transform="translate(0.28 -0.02)"/><path class="cls-4" d="M222.6,57.9a7.15,7.15,0,0,1-3.3,1,9.36,9.36,0,0,1-4.3-.6,7.53,7.53,0,0,1-4.8-3.6,8.88,8.88,0,0,1-.6-6.3l.4-1.5a11.43,11.43,0,0,1,2.2-4.1,7.42,7.42,0,0,1,3.4-2.2,7.14,7.14,0,0,1,4.1.1,7.39,7.39,0,0,1,4.6,2.9,6,6,0,0,1,.8,5l-4-1.1a3.9,3.9,0,0,0-.3-2.3A2.91,2.91,0,0,0,219,44a2.7,2.7,0,0,0-2.8.7,6.78,6.78,0,0,0-1.9,3.6l-.3,1.1a6.69,6.69,0,0,0-.3,4.1,2.93,2.93,0,0,0,2.5,2.1,3.82,3.82,0,0,0,2.6,0l.8-2.6-2.9-.8.8-2.9,7,2.1Z" transform="translate(0.28 -0.02)"/><path class="cls-4" d="M247.5,51.5l-5,10.6a6.89,6.89,0,0,1-2.2,2.8,5.09,5.09,0,0,1-3.2,1,9.86,9.86,0,0,1-3.7-.8,8.55,8.55,0,0,1-4-3.7,5.8,5.8,0,0,1,.3-5.1l5-10.8,4,1.8-5,10.8c-.8,1.8-.4,3,1.2,3.9a2.45,2.45,0,0,0,2.2.1,3.25,3.25,0,0,0,1.7-1.9l5-10.6Z" transform="translate(0.28 -0.02)"/><path class="cls-4" d="M255,73.3,250,70l-2.8,2.2-3.9-2.6,15.5-11.3,3.4,2.2-4.6,18.6-3.9-2.6ZM252.8,68l3.2,2.2,1.8-6.2Z" transform="translate(0.28 -0.02)"/><path class="cls-4" d="M270.5,82l-1.7-1.7L264.5,85l-3.2-2.9,12.1-13.2,5.2,4.8a8.65,8.65,0,0,1,2.8,4.4,4.66,4.66,0,0,1-1.4,4.1,5.85,5.85,0,0,1-2.6,1.8,4.44,4.44,0,0,1-3-.1l-2.2,7.9-.1.1-3.4-3.2Zm.5-4,2.1,1.8a2.44,2.44,0,0,0,1.8.8,2.23,2.23,0,0,0,1.7-1,2.3,2.3,0,0,0,.8-1.8,2.39,2.39,0,0,0-1-1.8l-2.1-1.8Z" transform="translate(0.28 -0.02)"/><path class="cls-4" d="M284.2,101.6l-3.7-4.7-3.3,1.2-2.9-3.6,18.2-5.9,2.5,3.2-9.9,16.4-2.9-3.6Zm-.4-5.9,2.3,3,3.7-5.4Z" transform="translate(0.28 -0.02)"/><path class="cls-4" d="M294.7,124.9l-2.1-3.7,6.6-11-9.8,5.4-2.1-3.7,15.7-8.7,2.1,3.7-6.6,11,9.8-5.4,2.1,3.7Z" transform="translate(0.28 -0.02)"/><path class="cls-4" d="M315.6,137.9l-1.9-5.1L300,137.9l-1.5-4,13.7-5.1-1.8-5,3.2-1.1,5.2,14.1Z" transform="translate(0.28 -0.02)"/><path class="cls-4" d="M312.8,157.1l-1.4-6.6-4.1,1,1.7,7.9-3.3.7L303.1,148l17.5-3.7,2.6,12.1-3.3.7-1.7-7.9-3.7.8,1.4,6.6Z" transform="translate(0.28 -0.02)"/><path class="cls-4" d="M314.6,175.2l-.6-6.8-4.3.3.6,8-3.3.3-1-12.3,17.9-1.4,1,12.4-3.3.3-.6-8-3.7.3.6,6.8Z" transform="translate(0.28 -0.02)"/><path class="cls-5" d="M49,212.3l.4,1.4a1.51,1.51,0,0,0,2.1,1.2,1.69,1.69,0,0,0,1-.7,1.57,1.57,0,0,0,.1-1.2,2.07,2.07,0,0,0-.6-1,1.31,1.31,0,0,0-1-.3l-.8-3a3.93,3.93,0,0,1,1.9.1,5.23,5.23,0,0,1,1.7,1.2,5.86,5.86,0,0,1,1,2.1,5.79,5.79,0,0,1-.1,3.7,3,3,0,0,1-2.5,1.9,3.73,3.73,0,0,1-1.8-.1,5.91,5.91,0,0,1-1.7-1.2,4,4,0,0,1-.7,1.9,3.27,3.27,0,0,1-1.8,1.1,3.72,3.72,0,0,1-3.2-.6,5.4,5.4,0,0,1-1.9-3.3A4.27,4.27,0,0,1,41,213a4.12,4.12,0,0,1,1-2.1,4.87,4.87,0,0,1,1.8-1.1l.8,3a2.29,2.29,0,0,0-1,.7,1.06,1.06,0,0,0-.1,1.2,1.23,1.23,0,0,0,.8,1.1,1.06,1.06,0,0,0,1.2.1c.7-.1,1.1-.4,1.2-.8a1.91,1.91,0,0,0,0-1.5l-.4-1.5Z" transform="translate(0.28 -0.02)"/><path class="cls-5" d="M59.1,226.2l-2.3.8v-.1a5.24,5.24,0,0,0-1.8-2.5,3.5,3.5,0,0,0-2.6-.6,3.83,3.83,0,0,1,1.9,2.2,3.17,3.17,0,0,1-.3,3,4.64,4.64,0,0,1-2.9,2.1,5.39,5.39,0,0,1-2.5.3,6.25,6.25,0,0,1-2.2-1,4.35,4.35,0,0,1-1.4-2.1,6.14,6.14,0,0,1-.3-2.6,3.7,3.7,0,0,1,1.2-2.2,5.26,5.26,0,0,1,2.5-1.5l1.2-.4a8.83,8.83,0,0,1,3.9-.4,6.66,6.66,0,0,1,3.3,1.5,6.44,6.44,0,0,1,2.1,3.2Zm-7.5-.4a1,1,0,0,0-.6-.8,5.94,5.94,0,0,1-.8-.4l-.8.3c-1.7.6-2.2,1.4-1.8,2.5.1.4.6.7,1,1a3.28,3.28,0,0,0,1.7-.1,3.16,3.16,0,0,0,1.4-1A8.08,8.08,0,0,0,51.6,225.8Z" transform="translate(0.28 -0.02)"/><path class="cls-5" d="M54.1,232.8l6.6-2.1L64,238l-2.2,1-2.2-4.8L57,235c.3.1.4.4.7.7a3.33,3.33,0,0,1,.6,1,3.52,3.52,0,0,1,.1,3.3,4,4,0,0,1-2.6,2.3,3.18,3.18,0,0,1-2.3.4,3.72,3.72,0,0,1-2.2-.8,3.83,3.83,0,0,1-1.5-2.1,4.93,4.93,0,0,1-.6-2.3,5.55,5.55,0,0,1,.6-2.2,3.33,3.33,0,0,1,1.7-1.4l1.2,2.9a1.89,1.89,0,0,0-.8,1,2.44,2.44,0,0,0,0,1.2c.4,1,1.4,1.1,2.8.4s1.7-1.5,1.2-2.6a1.72,1.72,0,0,0-1.4-1.2Z" transform="translate(0.28 -0.02)"/><path class="cls-5" d="M56.3,252.2,67.8,245l2.3,3.7a5.5,5.5,0,0,1,1,3.2,6.11,6.11,0,0,1-.8,3,9.15,9.15,0,0,1-2.3,2.5l-.6.3a6.82,6.82,0,0,1-3.2,1.1,5.2,5.2,0,0,1-3.2-.7,5.44,5.44,0,0,1-2.3-2.2Zm11-3.1-7.2,4.6.6,1a2.28,2.28,0,0,0,1.9,1.2,4.81,4.81,0,0,0,2.9-1l.6-.3a4.82,4.82,0,0,0,2.1-2.2,2.71,2.71,0,0,0-.3-2.3Z" transform="translate(0.28 -0.02)"/><path class="cls-5" d="M70.4,268.2l-2.8-3.4-2.5,1L63,263l13.8-4.4,1.8,2.3L70.9,273l-2.1-2.8Zm-.3-4.4,1.8,2.3,2.9-4Z" transform="translate(0.28 -0.02)"/><path class="cls-5" d="M80.7,272.5l5.9-2.2,2.3,2.6-9.4,2.8L75.9,279l-2.2-2.5,3.6-3.3,3.4-9.1,2.3,2.6Z" transform="translate(0.28 -0.02)"/><path class="cls-5" d="M97.1,280l-3.6,9.2,8.3-5.5,3.3,2.6L96.7,297l-2.5-2.1,1.9-2.5,4.3-4.8-8.6,5.5-1.7-1.4,3.4-9.5-3.9,5.2-1.9,2.5-2.5-2.1,8.4-10.6Z" transform="translate(0.28 -0.02)"/><path class="cls-5" d="M113,299.8a8.88,8.88,0,0,1-2.5,2.6,4.17,4.17,0,0,1-3,.8,4.72,4.72,0,0,1-3-1,6,6,0,0,1-2.2-2.3,6.21,6.21,0,0,1-.6-3,7.18,7.18,0,0,1,1.1-3.3l.4-.7a8.88,8.88,0,0,1,2.5-2.6,4.17,4.17,0,0,1,3-.8,4.72,4.72,0,0,1,3,1,6,6,0,0,1,2.2,2.3,6.21,6.21,0,0,1,.6,3,8.82,8.82,0,0,1-1.2,3.3Zm-2.5-2.2a5.86,5.86,0,0,0,1.1-2.9,2.14,2.14,0,0,0-1.1-1.9c-1.4-.8-2.8-.3-4.1,1.8l-.6.8a5.86,5.86,0,0,0-1.1,2.9,2.14,2.14,0,0,0,1.1,1.9,2.43,2.43,0,0,0,2.2.1,6.52,6.52,0,0,0,2.2-2.2Z" transform="translate(0.28 -0.02)"/><path class="cls-5" d="M122.7,311.8l-2.9-1.4-.6-9.7-3.7,7.6-2.9-1.4,5.9-12.1,2.9,1.4.6,9.7,3.7-7.6,2.9,1.4Z" transform="translate(0.28 -0.02)"/><path class="cls-5" d="M135.9,310.8l-4.8-1.8-1.1,3,5.7,2.1-.8,2.3-8.7-3.3,4.7-12.7,8.7,3.3-.8,2.3-5.7-2.1-1,2.6,4.8,1.8Z" transform="translate(0.28 -0.02)"/><path class="cls-5" d="M144.3,311.4l4-5,3.3,1-6.5,7.2-1.2,4.7-3.2-.8,1.2-4.7-1.9-9.5,3.3,1Z" transform="translate(0.28 -0.02)"/><path class="cls-5" d="M156.5,321.9l1.8-13.4,4.8.6c1.7.3,3,.7,3.7,1.5a3.38,3.38,0,0,1,1,2.9,3.25,3.25,0,0,1-.7,1.7,4.36,4.36,0,0,1-1.5,1,3.64,3.64,0,0,1,1.5,1.2,3.08,3.08,0,0,1,.3,1.9,3.24,3.24,0,0,1-1.7,2.8,6.57,6.57,0,0,1-3.9.6Zm4-5.3-.4,3.2,2.1.3a1.57,1.57,0,0,0,1.4-.3,1.25,1.25,0,0,0,.6-1.1c.1-1.1-.3-1.8-1.4-1.9Zm.3-2.1,1.7.3a3.25,3.25,0,0,0,1.5-.1,1.52,1.52,0,0,0,.6-1.1q.15-.9-.3-1.2a2.09,2.09,0,0,0-1.5-.6l-1.5-.1Z" transform="translate(0.28 -0.02)"/><path class="cls-5" d="M178,321.2l-4.4-.1-.8,2.5-3.4-.1,5.4-13.4,3,.1,4.6,13.7-3.4-.1Zm-3.6-2.7,2.9.1-1.4-4.7Z" transform="translate(0.28 -0.02)"/><path class="cls-5" d="M195.2,318.4a4.06,4.06,0,0,1-.6,2.5,5.17,5.17,0,0,1-1.8,1.8,8.29,8.29,0,0,1-2.8.8,5.32,5.32,0,0,1-4.3-1.5,6.81,6.81,0,0,1-1.8-4.8v-.7a8.33,8.33,0,0,1,.4-3.6,6.42,6.42,0,0,1,1.8-2.5,4.84,4.84,0,0,1,2.9-1,6.29,6.29,0,0,1,4,1,4.69,4.69,0,0,1,1.9,3.4l-3.2.3a2,2,0,0,0-2.5-2.2,1.82,1.82,0,0,0-1.7,1,7.78,7.78,0,0,0-.4,2.9v1a7.68,7.68,0,0,0,.7,3,2.13,2.13,0,0,0,1.9.8,2.61,2.61,0,0,0,1.7-.7,2.35,2.35,0,0,0,.6-1.7Z" transform="translate(0.28 -0.02)"/><path class="cls-5" d="M202.4,316.9l-1.1,1.7.6,3.6-3.2.6-2.2-13.4,3.2-.6,1,5.9.8-1.9,2.2-4.7,4-.7-3.4,6.6,5.8,6.8-3.7.7Z" transform="translate(0.28 -0.02)"/><path class="cls-5" d="M216.1,311.8a3.6,3.6,0,0,1,.1-1.8,2.59,2.59,0,0,1,1.4-1.1,3.6,3.6,0,0,1,1.8.1,2.27,2.27,0,0,1,1.1,1.4l.1.4a3.14,3.14,0,0,1-.1,1.7c-.3.6-.8.8-1.5,1.1a3.6,3.6,0,0,1-1.8-.1,2.27,2.27,0,0,1-1.1-1.4Z" transform="translate(0.28 -0.02)"/><path class="cls-5" d="M237.6,311.5l-2.9,1.2-3.9-9.2-2.5,2.1-1-2.2,4.7-4.1.3-.1Z" transform="translate(0.28 -0.02)"/><path class="cls-5" d="M248.4,299.9a8.33,8.33,0,0,1,1,4.3,4.37,4.37,0,0,1-2.3,2.9,4.12,4.12,0,0,1-3.7.3,6.29,6.29,0,0,1-3-3.2l-1.1-2.2a8.33,8.33,0,0,1-1-4.3,4.68,4.68,0,0,1,2.3-2.9,4.12,4.12,0,0,1,3.7-.3,6.29,6.29,0,0,1,3,3.2Zm-4-1a7,7,0,0,0-1.4-1.8,1.41,1.41,0,0,0-1.4-.1,1.51,1.51,0,0,0-.7,1.1,3.2,3.2,0,0,0,.6,1.9l1.7,3a5.61,5.61,0,0,0,1.4,1.8,1.2,1.2,0,0,0,1.4,0,1.51,1.51,0,0,0,.7-1.1,5.68,5.68,0,0,0-.7-2.1Z" transform="translate(0.28 -0.02)"/><path class="cls-5" d="M258.6,293.4a6.07,6.07,0,0,1,1.2,4.3,4.38,4.38,0,0,1-2.1,3.2,4.57,4.57,0,0,1-3.7.7,6.83,6.83,0,0,1-3.3-2.9l-1.4-2.1a6.07,6.07,0,0,1-1.2-4.3,4.38,4.38,0,0,1,2.1-3.2,4.57,4.57,0,0,1,3.7-.7,6.83,6.83,0,0,1,3.3,2.9Zm-4.2-.7a6.61,6.61,0,0,0-1.5-1.7,1.2,1.2,0,0,0-1.4,0,1.22,1.22,0,0,0-.6,1.2,3.7,3.7,0,0,0,.8,1.9l1.9,2.9a9.24,9.24,0,0,0,1.5,1.7,1.2,1.2,0,0,0,1.4,0,1.22,1.22,0,0,0,.6-1.2,4.63,4.63,0,0,0-.8-2.1Z" transform="translate(0.28 -0.02)"/><path class="cls-5" d="M257.5,287.8a3,3,0,0,1-.7-2.1,3.27,3.27,0,0,1,1.2-1.9,3.49,3.49,0,0,1,2.2-.8,2.4,2.4,0,0,1,1.9,1.1l.4.6a3,3,0,0,1,.7,2.1,3.27,3.27,0,0,1-1.2,1.9,3.16,3.16,0,0,1-2.2.8,2.4,2.4,0,0,1-1.9-1.1Zm1.9-.9a.67.67,0,0,0,.7.4.83.83,0,0,0,.8-.3c.6-.4.6-1,0-1.5l-.4-.4a.67.67,0,0,0-.7-.4.83.83,0,0,0-.8.3.67.67,0,0,0-.4.7,1.14,1.14,0,0,0,.3.8Zm7,6.2-1.7.3L263.2,281l1.7-.3Zm.9-3.4a3,3,0,0,1-.7-2.1,3.27,3.27,0,0,1,1.2-1.9,3.16,3.16,0,0,1,2.2-.8,2.4,2.4,0,0,1,1.9,1.1l.4.6a3,3,0,0,1,.7,2.1,3.27,3.27,0,0,1-1.2,1.9,3.49,3.49,0,0,1-2.2.8,2.4,2.4,0,0,1-1.9-1.1Zm1.9-.7a.67.67,0,0,0,.7.4,2,2,0,0,0,.8-.1c.4-.4.6-.8.3-1.2l-.6-.7a.67.67,0,0,0-.7-.4c-.3,0-.6,0-.7.3a.67.67,0,0,0-.4.7.83.83,0,0,0,.3.8Z" transform="translate(0.28 -0.02)"/><path class="cls-5" d="M288.5,273.7l-2.2,2.3-9.4-2.2,6.2,5.7-2.2,2.3-9.9-9.2,2.2-2.3,9.4,2.2-6.2-5.7,2.2-2.3Z" transform="translate(0.28 -0.02)"/><path class="cls-5" d="M292.5,257.8a7.85,7.85,0,0,1,2.3,2.6,5.72,5.72,0,0,1,.7,3,5.8,5.8,0,0,1-1.2,2.9,6,6,0,0,1-2.5,1.9,4.42,4.42,0,0,1-3,.3,7,7,0,0,1-3.2-1.4l-.6-.4a7.85,7.85,0,0,1-2.3-2.6,5.72,5.72,0,0,1-.7-3,5.65,5.65,0,0,1,1.2-2.9,5.11,5.11,0,0,1,2.5-1.9,6.88,6.88,0,0,1,3.2-.3,8.5,8.5,0,0,1,3.2,1.5Zm-2.3,2.4a5.28,5.28,0,0,0-2.9-1.2,2.06,2.06,0,0,0-1.9,1c-1,1.2-.6,2.8,1.4,4.3l.8.6a8.38,8.38,0,0,0,2.9,1.4,2.38,2.38,0,0,0,2.1-1,2,2,0,0,0,.3-2.2,5.49,5.49,0,0,0-2.1-2.3Z" transform="translate(0.28 -0.02)"/><path class="cls-5" d="M300.9,247.2l-.8,1.5,4.1,2.3-1.5,2.9-11.9-6.5,2.5-4.7a6.28,6.28,0,0,1,2.8-2.8,3.54,3.54,0,0,1,3.3.3,4.24,4.24,0,0,1,1.8,1.7,3,3,0,0,1,.4,2.3l6.2.1h.1l-1.7,3Zm-3,.4,1-1.8a2.15,2.15,0,0,0,.3-1.5c-.1-.6-.4-.8-1-1.1a2,2,0,0,0-1.4-.3,1.74,1.74,0,0,0-1.1,1l-1,1.8Z" transform="translate(0.28 -0.02)"/><path class="cls-5" d="M310.6,238.5l-1.4,2.9-12.3-5.7,1.4-2.9Z" transform="translate(0.28 -0.02)"/><path class="cls-5" d="M311.2,227.5a1.67,1.67,0,0,0-1.2.1,9,9,0,0,0-1.4,1.4c-.6.7-1.1,1.2-1.5,1.7-1.4,1.4-2.9,1.8-4.3,1.2a5.23,5.23,0,0,1-1.7-1.2,4,4,0,0,1-.6-2.2,5,5,0,0,1,.6-2.6,4.42,4.42,0,0,1,1.4-2.2,3.33,3.33,0,0,1,2.1-1.1,6,6,0,0,1,2.3.1l-1.1,3a3.27,3.27,0,0,0-1.4,0c-.4.1-.7.6-1,1.1-.1.6-.3,1-.1,1.4a1.14,1.14,0,0,0,.7.8,2.16,2.16,0,0,0,1.1-.1,10.21,10.21,0,0,0,1.5-1.5,10,10,0,0,1,1.7-1.8,3.57,3.57,0,0,1,4-.8,3.45,3.45,0,0,1,2.2,2.2,5.4,5.4,0,0,1-.3,3.7,7.82,7.82,0,0,1-1.7,2.6,3.74,3.74,0,0,1-2.2,1.2,7,7,0,0,1-2.5-.1l1.1-3a1.71,1.71,0,0,0,1.7,0,3.08,3.08,0,0,0,1.1-1.5c.1-.6.3-1,.1-1.4C311.8,227.9,311.6,227.6,311.2,227.5Z" transform="translate(0.28 -0.02)"/><path class="cls-5" d="M313.1,216.7l1.1,1.7,3.4,1-.8,3.2L303.7,219l.8-3.2,5.8,1.5-1.4-1.5-3.3-3.9,1.1-3.9,4.6,5.9,8.4-2.5-1,3.7Z" transform="translate(0.28 -0.02)"/><path id="Fill-3-3" data-name="Fill-3" class="cls-6" d="M179.9,77.5A102.5,102.5,0,1,1,77.3,180,102.55,102.55,0,0,1,179.9,77.5" transform="translate(0.28 -0.02)"/><g id="RG_ICON_1C_BLACK" data-name="RG ICON 1C BLACK"><path id="Fill-1" class="cls-7" d="M179.9,260.9c-44,0-79.9-36.3-79.9-81s35.9-81,79.9-81,79.9,36.3,79.9,81-35.9,81-79.9,81m0-152.5c-38.9,0-70.5,32-70.5,71.5s31.6,71.5,70.5,71.5,70.5-32.2,70.5-71.5c.2-39.4-31.6-71.5-70.5-71.5" transform="translate(0.28 -0.02)"/><path id="Fill-2" class="cls-7" d="M140.2,180v.7c6.1-1.4,17.4-5.7,22.9-18.6,1.5-3.6,2.3-12.1,2.6-19.6-15.2,5.6-25.5,20.5-25.5,37.5" transform="translate(0.28 -0.02)"/><path id="Fill-3-4" data-name="Fill-3" class="cls-7" d="M179.9,117.8c-33.9,0-61.4,27.8-61.4,62.2s27.5,62.2,61.4,62.2,61.4-27.9,61.4-62.2-27.4-62.2-61.4-62.2m-3.3,114.9-11.9-3v-3c-.7-17.2-4.4-26.8-7.6-31.9a19.32,19.32,0,0,0-5.2-5.8,43.54,43.54,0,0,1-10.1,3.3,41.24,41.24,0,0,0,8.6,14.9l-8.7,8a52.72,52.72,0,0,1-13.5-35.3,52.18,52.18,0,0,1,42.1-51.5l6.9-1.2.1,7c0,2.3.1,23.3-3.6,32.3a41.87,41.87,0,0,1-11.3,15.7c6.2,6.5,14.2,20.3,14.2,50.5m52.7-37.5c-5.8,18.4-21,32.6-39.9,36.2l-6.9,1.2V127.3l6.9,1.2a52.19,52.19,0,0,1,41.4,42.4L219.3,173a40.18,40.18,0,0,0-25-30.8v75.5c10.6-4.1,20.7-13.9,23.6-27.2H203l3.6-11.9h25.7l-.3,2.5a71.73,71.73,0,0,1-2.7,14.1" transform="translate(0.28 -0.02)"/></g></svg>